{"title":"Morning Glory 2011 CAM XViD","uid":6116118,"size":1204807145,"categoryP":"video","categoryS":"movies","magnet":"?xt=urn:btih:f86885db4f01acd6d3a7023c46efcc5ac39f79e1&amp;dn=Morning+Glory+2011+CAM+XViD&amp;tr=udp%3A%2F%2Ftracker.openbittorrent.com%3A80&amp;tr=udp%3A%2F%2Fopen.demonii.com%3A1337&amp;tr=udp%3A%2F%2Ftracker.coppersurfer.tk%3A6969&amp;tr=udp%3A%2F%2Fexodus.desync.com%3A6969","seeders":2,"leechers":0,"uploader":"SAFCukO09","files":2,"time":1295559699,"description":"Format : AVI\nFormat/Info : Audio Video Interleave\nFile size : 1.12 GiB\nDuration : 1h 38mn\nOverall bit rate : 1 637 Kbps\nWriting library : VirtualDub build 32839/release\n\nVideo\nID : 0\nFormat : MPEG-4 Visual\nFormat profile : Advanced Simple@L5\nFormat settings, BVOP : Yes\nFormat settings, QPel : No\nFormat settings, GMC : No warppoints\nFormat settings, Matrix : Custom\nCodec ID : XVID\nCodec ID/Hint : XviD\nDuration : 1h 38mn\nBit rate : 1 500 Kbps\nWidth : 720 pixels\nHeight : 384 pixels\nDisplay aspect ratio : 1.875\nFrame rate : 25.000 fps\nColor space : YUV\nChroma subsampling : 4:2:0\nBit depth : 8 bits\nScan type : Progressive\nBits/(Pixel*Frame) : 0.217\nStream size : 1.03 GiB (92%)\nWriting library : XviD 1.2.1 (UTC 2008-12-04)\n\nAudio\nID : 1\nFormat : MPEG Audio\nFormat version : Version 1\nFormat profile : Layer 3\nMode : Joint stereo\nMode extension : MS Stereo\nCodec ID : 55\nCodec ID/Hint : MP3\nDuration : 1h 38mn\nBit rate mode : Constant\nBit rate : 128 Kbps\nChannel(s) : 2 channels\nSampling rate : 44.1 KHz\nStream size : 89.8 MiB (8%)\nAlignment : Split accross interleaves\nInterleave, duration : 40 ms (1.00 video frame)\nInterleave, preload duration : 500 ms\n &lt;a href=&quot;\nhttp://www.imdb.com/title/tt1126618/&quot; rel=&quot;nofollow&quot; target=&quot;_NEW&quot;&gt;\nhttp://www.imdb.com/title/tt1126618/&lt;/a&gt;\n\n\nUsers: 6.9/10 (1,977 votes) 52 reviews | Critics: 108 reviews Metascore: 57/100 (based on 38 reviews from Metacritic.com)\n\nAn upstart television producer accepts the challenge of reviving a struggling morning show program with warring co-hosts.\nDirector:\nRoger Michell\nWriter:\nAline Brosh McKenna\nStars:\nRachel McAdams, Harrison Ford and Diane Keaton\n","torrent":{"xt":"urn:btih:f86885db4f01acd6d3a7023c46efcc5ac39f79e1","amp;dn":"Morning+Glory+2011+CAM+XViD","amp;tr":["udp%3A%2F%2Ftracker.openbittorrent.com%3A80","udp%3A%2F%2Fopen.demonii.com%3A1337","udp%3A%2F%2Ftracker.coppersurfer.tk%3A6969","udp%3A%2F%2Fexodus.desync.com%3A6969"],"infoHash":"f86885db4f01acd6d3a7023c46efcc5ac39f79e1","infoHashBuffer":{"type":"Buffer","data":[248,104,133,219,79,1,172,214,211,167,2,60,70,239,204,90,195,159,121,225]},"announce":[],"urlList":[]}}